<mxfile host="Electron" agent="Mozilla/5.0 (Windows NT 10.0; Win64; x64) AppleWebKit/537.36 (KHTML, like Gecko) draw.io/26.1.1 Chrome/132.0.6834.210 Electron/34.3.3 Safari/537.36" version="26.1.1">
  <diagram name="Page-1" id="5f0bae14-7c28-e335-631c-24af17079c00">
    <mxGraphModel dx="1128" dy="553" grid="1" gridSize="10" guides="1" tooltips="1" connect="1" arrows="1" fold="1" page="1" pageScale="1" pageWidth="1100" pageHeight="850" background="none" math="0" shadow="0">
      <root>
        <mxCell id="0" />
        <mxCell id="1" parent="0" />
        <mxCell id="39150e848f15840c-1" value="Athentication" style="verticalAlign=top;align=left;spacingTop=8;spacingLeft=2;spacingRight=12;shape=cube;size=10;direction=south;fontStyle=4;html=1;rounded=0;shadow=0;comic=0;labelBackgroundColor=none;strokeWidth=1;fontFamily=Verdana;fontSize=12" parent="1" vertex="1">
          <mxGeometry x="310" y="195" width="400" height="315" as="geometry" />
        </mxCell>
        <mxCell id="39150e848f15840c-5" value="Sessions&lt;div&gt;Manager&lt;/div&gt;&lt;div&gt;(Login/logout)&lt;/div&gt;" style="shape=component;align=left;spacingLeft=36;rounded=0;shadow=0;comic=0;labelBackgroundColor=none;strokeWidth=1;fontFamily=Verdana;fontSize=12;html=1;" parent="1" vertex="1">
          <mxGeometry x="350" y="260" width="130" height="60" as="geometry" />
        </mxCell>
        <mxCell id="otqnFci0Plrtz_pooFe8-1" value="&lt;b&gt;Utium/UserInterface Component Diagram LVL1:&lt;/b&gt;" style="text;html=1;align=center;verticalAlign=middle;resizable=0;points=[];autosize=1;strokeColor=none;fillColor=none;" vertex="1" parent="1">
          <mxGeometry width="290" height="30" as="geometry" />
        </mxCell>
        <mxCell id="otqnFci0Plrtz_pooFe8-2" value="Registration" style="shape=component;align=left;spacingLeft=36;rounded=0;shadow=0;comic=0;labelBackgroundColor=none;strokeWidth=1;fontFamily=Verdana;fontSize=12;html=1;" vertex="1" parent="1">
          <mxGeometry x="540" y="260" width="120" height="60" as="geometry" />
        </mxCell>
        <mxCell id="otqnFci0Plrtz_pooFe8-3" value="Verification" style="shape=component;align=left;spacingLeft=36;rounded=0;shadow=0;comic=0;labelBackgroundColor=none;strokeWidth=1;fontFamily=Verdana;fontSize=12;html=1;" vertex="1" parent="1">
          <mxGeometry x="440" y="395" width="120" height="60" as="geometry" />
        </mxCell>
        <mxCell id="otqnFci0Plrtz_pooFe8-4" value="" style="rounded=0;orthogonalLoop=1;jettySize=auto;html=1;endArrow=halfCircle;endFill=0;endSize=6;strokeWidth=1;sketch=0;exitX=1;exitY=0.25;exitDx=0;exitDy=0;" edge="1" target="otqnFci0Plrtz_pooFe8-6" parent="1" source="otqnFci0Plrtz_pooFe8-3">
          <mxGeometry relative="1" as="geometry">
            <mxPoint x="530" y="345" as="sourcePoint" />
            <Array as="points">
              <mxPoint x="635" y="410" />
            </Array>
          </mxGeometry>
        </mxCell>
        <mxCell id="otqnFci0Plrtz_pooFe8-5" value="" style="rounded=0;orthogonalLoop=1;jettySize=auto;html=1;endArrow=oval;endFill=0;sketch=0;sourcePerimeterSpacing=0;targetPerimeterSpacing=0;endSize=10;entryX=0.359;entryY=0.416;entryDx=0;entryDy=0;entryPerimeter=0;exitX=0.79;exitY=0.994;exitDx=0;exitDy=0;exitPerimeter=0;" edge="1" target="otqnFci0Plrtz_pooFe8-6" parent="1" source="otqnFci0Plrtz_pooFe8-2">
          <mxGeometry relative="1" as="geometry">
            <mxPoint x="635" y="320" as="sourcePoint" />
            <mxPoint x="570" y="410" as="targetPoint" />
          </mxGeometry>
        </mxCell>
        <mxCell id="otqnFci0Plrtz_pooFe8-6" value="" style="ellipse;whiteSpace=wrap;html=1;align=center;aspect=fixed;fillColor=none;strokeColor=none;resizable=0;perimeter=centerPerimeter;rotatable=0;allowArrows=0;points=[];outlineConnect=1;" vertex="1" parent="1">
          <mxGeometry x="630" y="347.5" width="10" height="10" as="geometry" />
        </mxCell>
        <mxCell id="otqnFci0Plrtz_pooFe8-7" value="" style="rounded=0;orthogonalLoop=1;jettySize=auto;html=1;endArrow=halfCircle;endFill=0;endSize=6;strokeWidth=1;sketch=0;exitX=0.75;exitY=1;exitDx=0;exitDy=0;" edge="1" target="otqnFci0Plrtz_pooFe8-9" parent="1" source="39150e848f15840c-5">
          <mxGeometry relative="1" as="geometry">
            <mxPoint x="530" y="345" as="sourcePoint" />
            <Array as="points">
              <mxPoint x="448" y="365" />
            </Array>
          </mxGeometry>
        </mxCell>
        <mxCell id="otqnFci0Plrtz_pooFe8-8" value="" style="rounded=0;orthogonalLoop=1;jettySize=auto;html=1;endArrow=oval;endFill=0;sketch=0;sourcePerimeterSpacing=0;targetPerimeterSpacing=0;endSize=10;exitX=0.292;exitY=-0.007;exitDx=0;exitDy=0;entryX=0.45;entryY=0.617;entryDx=0;entryDy=0;entryPerimeter=0;exitPerimeter=0;" edge="1" target="otqnFci0Plrtz_pooFe8-9" parent="1" source="otqnFci0Plrtz_pooFe8-3">
          <mxGeometry relative="1" as="geometry">
            <mxPoint x="490" y="345" as="sourcePoint" />
          </mxGeometry>
        </mxCell>
        <mxCell id="otqnFci0Plrtz_pooFe8-9" value="" style="ellipse;whiteSpace=wrap;html=1;align=center;aspect=fixed;fillColor=none;strokeColor=none;resizable=0;perimeter=centerPerimeter;rotatable=0;allowArrows=0;points=[];outlineConnect=1;" vertex="1" parent="1">
          <mxGeometry x="470" y="360" width="10" height="10" as="geometry" />
        </mxCell>
        <mxCell id="otqnFci0Plrtz_pooFe8-10" value="" style="rounded=0;orthogonalLoop=1;jettySize=auto;html=1;endArrow=halfCircle;endFill=0;endSize=6;strokeWidth=1;sketch=0;exitX=0.5;exitY=1;exitDx=0;exitDy=0;" edge="1" parent="1" source="otqnFci0Plrtz_pooFe8-13">
          <mxGeometry relative="1" as="geometry">
            <mxPoint x="530" y="315" as="sourcePoint" />
            <mxPoint x="280" y="340" as="targetPoint" />
          </mxGeometry>
        </mxCell>
        <mxCell id="otqnFci0Plrtz_pooFe8-11" value="" style="rounded=0;orthogonalLoop=1;jettySize=auto;html=1;endArrow=oval;endFill=0;sketch=0;sourcePerimeterSpacing=0;targetPerimeterSpacing=0;endSize=10;exitX=0.25;exitY=1;exitDx=0;exitDy=0;" edge="1" parent="1" source="39150e848f15840c-5">
          <mxGeometry relative="1" as="geometry">
            <mxPoint x="490" y="315" as="sourcePoint" />
            <mxPoint x="280" y="340" as="targetPoint" />
            <Array as="points">
              <mxPoint x="383" y="340" />
            </Array>
          </mxGeometry>
        </mxCell>
        <mxCell id="otqnFci0Plrtz_pooFe8-12" value="" style="ellipse;whiteSpace=wrap;html=1;align=center;aspect=fixed;fillColor=none;strokeColor=none;resizable=0;perimeter=centerPerimeter;rotatable=0;allowArrows=0;points=[];outlineConnect=1;" vertex="1" parent="1">
          <mxGeometry x="505" y="310" width="10" height="10" as="geometry" />
        </mxCell>
        <mxCell id="otqnFci0Plrtz_pooFe8-13" value="Member/&lt;div&gt;Account&lt;/div&gt;&lt;div&gt;(LVL1)&lt;/div&gt;" style="ellipse;whiteSpace=wrap;html=1;aspect=fixed;" vertex="1" parent="1">
          <mxGeometry x="240" y="80" width="80" height="80" as="geometry" />
        </mxCell>
        <mxCell id="otqnFci0Plrtz_pooFe8-14" value="" style="rounded=0;orthogonalLoop=1;jettySize=auto;html=1;endArrow=halfCircle;endFill=0;endSize=6;strokeWidth=1;sketch=0;exitX=1;exitY=0.5;exitDx=0;exitDy=0;" edge="1" parent="1" source="otqnFci0Plrtz_pooFe8-13">
          <mxGeometry relative="1" as="geometry">
            <mxPoint x="530" y="255" as="sourcePoint" />
            <mxPoint x="570" y="160" as="targetPoint" />
            <Array as="points">
              <mxPoint x="570" y="120" />
            </Array>
          </mxGeometry>
        </mxCell>
        <mxCell id="otqnFci0Plrtz_pooFe8-15" value="" style="rounded=0;orthogonalLoop=1;jettySize=auto;html=1;endArrow=oval;endFill=0;sketch=0;sourcePerimeterSpacing=0;targetPerimeterSpacing=0;endSize=10;exitX=0.25;exitY=0;exitDx=0;exitDy=0;" edge="1" parent="1" source="otqnFci0Plrtz_pooFe8-2">
          <mxGeometry relative="1" as="geometry">
            <mxPoint x="490" y="255" as="sourcePoint" />
            <mxPoint x="570" y="160" as="targetPoint" />
          </mxGeometry>
        </mxCell>
        <mxCell id="otqnFci0Plrtz_pooFe8-16" value="" style="ellipse;whiteSpace=wrap;html=1;align=center;aspect=fixed;fillColor=none;strokeColor=none;resizable=0;perimeter=centerPerimeter;rotatable=0;allowArrows=0;points=[];outlineConnect=1;" vertex="1" parent="1">
          <mxGeometry x="505" y="250" width="10" height="10" as="geometry" />
        </mxCell>
        <mxCell id="otqnFci0Plrtz_pooFe8-17" value="Admin" style="ellipse;whiteSpace=wrap;html=1;aspect=fixed;" vertex="1" parent="1">
          <mxGeometry x="710" y="80" width="80" height="80" as="geometry" />
        </mxCell>
        <mxCell id="otqnFci0Plrtz_pooFe8-19" value="" style="rounded=0;orthogonalLoop=1;jettySize=auto;html=1;endArrow=halfCircle;endFill=0;endSize=6;strokeWidth=1;sketch=0;exitX=0;exitY=0.5;exitDx=0;exitDy=0;" edge="1" parent="1" source="otqnFci0Plrtz_pooFe8-17">
          <mxGeometry relative="1" as="geometry">
            <mxPoint x="530" y="315" as="sourcePoint" />
            <mxPoint x="640" y="160" as="targetPoint" />
            <Array as="points">
              <mxPoint x="640" y="120" />
            </Array>
          </mxGeometry>
        </mxCell>
        <mxCell id="otqnFci0Plrtz_pooFe8-20" value="" style="rounded=0;orthogonalLoop=1;jettySize=auto;html=1;endArrow=oval;endFill=0;sketch=0;sourcePerimeterSpacing=0;targetPerimeterSpacing=0;endSize=10;exitX=0.833;exitY=0;exitDx=0;exitDy=0;exitPerimeter=0;" edge="1" parent="1" source="otqnFci0Plrtz_pooFe8-2">
          <mxGeometry relative="1" as="geometry">
            <mxPoint x="490" y="315" as="sourcePoint" />
            <mxPoint x="640" y="160" as="targetPoint" />
          </mxGeometry>
        </mxCell>
        <mxCell id="otqnFci0Plrtz_pooFe8-21" value="" style="ellipse;whiteSpace=wrap;html=1;align=center;aspect=fixed;fillColor=none;strokeColor=none;resizable=0;perimeter=centerPerimeter;rotatable=0;allowArrows=0;points=[];outlineConnect=1;" vertex="1" parent="1">
          <mxGeometry x="505" y="310" width="10" height="10" as="geometry" />
        </mxCell>
        <mxCell id="otqnFci0Plrtz_pooFe8-22" value="" style="rounded=0;orthogonalLoop=1;jettySize=auto;html=1;endArrow=halfCircle;endFill=0;endSize=6;strokeWidth=1;sketch=0;exitX=0;exitY=0;exitDx=0;exitDy=0;" edge="1" parent="1" source="otqnFci0Plrtz_pooFe8-17">
          <mxGeometry relative="1" as="geometry">
            <mxPoint x="530" y="315" as="sourcePoint" />
            <mxPoint x="420" y="160" as="targetPoint" />
            <Array as="points">
              <mxPoint x="420" y="90" />
            </Array>
          </mxGeometry>
        </mxCell>
        <mxCell id="otqnFci0Plrtz_pooFe8-23" value="" style="rounded=0;orthogonalLoop=1;jettySize=auto;html=1;endArrow=oval;endFill=0;sketch=0;sourcePerimeterSpacing=0;targetPerimeterSpacing=0;endSize=10;" edge="1" parent="1">
          <mxGeometry relative="1" as="geometry">
            <mxPoint x="420" y="260" as="sourcePoint" />
            <mxPoint x="420" y="160" as="targetPoint" />
          </mxGeometry>
        </mxCell>
        <mxCell id="otqnFci0Plrtz_pooFe8-24" value="" style="ellipse;whiteSpace=wrap;html=1;align=center;aspect=fixed;fillColor=none;strokeColor=none;resizable=0;perimeter=centerPerimeter;rotatable=0;allowArrows=0;points=[];outlineConnect=1;" vertex="1" parent="1">
          <mxGeometry x="505" y="310" width="10" height="10" as="geometry" />
        </mxCell>
        <mxCell id="otqnFci0Plrtz_pooFe8-25" value="" style="rounded=0;orthogonalLoop=1;jettySize=auto;html=1;endArrow=halfCircle;endFill=0;endSize=6;strokeWidth=1;sketch=0;exitX=0.5;exitY=0;exitDx=0;exitDy=0;" edge="1" target="otqnFci0Plrtz_pooFe8-27" parent="1" source="otqnFci0Plrtz_pooFe8-3">
          <mxGeometry relative="1" as="geometry">
            <mxPoint x="520" y="335" as="sourcePoint" />
          </mxGeometry>
        </mxCell>
        <mxCell id="otqnFci0Plrtz_pooFe8-26" value="" style="rounded=0;orthogonalLoop=1;jettySize=auto;html=1;endArrow=oval;endFill=0;sketch=0;sourcePerimeterSpacing=0;targetPerimeterSpacing=0;endSize=10;exitX=1;exitY=0.25;exitDx=0;exitDy=0;entryX=0.6;entryY=0.8;entryDx=0;entryDy=0;entryPerimeter=0;" edge="1" target="otqnFci0Plrtz_pooFe8-27" parent="1" source="39150e848f15840c-5">
          <mxGeometry relative="1" as="geometry">
            <mxPoint x="480" y="335" as="sourcePoint" />
          </mxGeometry>
        </mxCell>
        <mxCell id="otqnFci0Plrtz_pooFe8-27" value="" style="ellipse;whiteSpace=wrap;html=1;align=center;aspect=fixed;fillColor=none;strokeColor=none;resizable=0;perimeter=centerPerimeter;rotatable=0;allowArrows=0;points=[];outlineConnect=1;" vertex="1" parent="1">
          <mxGeometry x="495" y="270" width="10" height="10" as="geometry" />
        </mxCell>
      </root>
    </mxGraphModel>
  </diagram>
</mxfile>
